<svg width="264" height="480" viewBox="0 0 264 480" fill="none" xmlns="http://www.w3.org/2000/svg">
<g clip-path="url(#clip0_8_1257)">
<path d="M-42.6687 24.5933V329.857L-1.53007 353.056L55.403 360.413L67.662 119.989L55.403 49.5655L6.36715 24.9721L-42.6687 24.5933Z" fill="#5374E9"/>
<path d="M55.4023 49.5655V340.413L104.438 334.829L153.474 309.857C153.474 306.041 153.474 28.4078 153.474 24.5933L104.438 24.9721L55.4023 49.5655Z" fill="#6C8DFF"/>
<path fill-rule="evenodd" clip-rule="evenodd" d="M30.7912 43.2987C4.12466 36.5086 -34.4138 26.6956 -42.6687 24.5934L55.4023 0.000162624V0H55.403L153.474 24.5934L128.603 30.9262C101.948 37.7135 63.6329 47.4696 55.4031 49.5654L55.403 49.5656C55.4029 49.5656 55.4028 49.5655 55.4027 49.5655C55.4026 49.5655 55.4025 49.5656 55.4023 49.5656V49.5654C51.7802 48.6431 42.4132 46.258 30.7912 43.2987Z" fill="#7CAEF8"/>
<path d="M-42.6687 353.522V509.659C-30.4988 506.607 43.408 488.073 55.403 485.066L67.662 407.74L55.403 330.414C40.9276 331.12 10.4502 332.609 1.8722 333.028C-3.53728 335.516 -37.2396 351.024 -42.6687 353.522Z" fill="#6BCD49"/>
<path fill-rule="evenodd" clip-rule="evenodd" d="M-42.6688 299.858V299.857C-13.7229 308.876 -3.86365 311.948 3.12471 314.125C12.5408 317.059 16.7448 318.369 55.4029 330.413C47.9178 332.177 15.9089 339.719 -9.84305 345.787C-25.1513 349.394 -38.2486 352.48 -42.6688 353.522V353.521L-42.6694 353.522C-56.115 350.354 -139.582 330.687 -153 327.525L-42.6694 299.857L-42.6688 299.858Z" fill="#C9F87C"/>
<path d="M153.474 353.522L165.733 431.59L153.474 509.658C141.61 506.683 67.344 488.059 55.4021 485.065C55.4021 476.477 55.4021 338.999 55.4021 330.413L104.438 332.207L153.474 353.522Z" fill="#F39321"/>
<path d="M263.804 327.525V481.991C224.311 491.895 191.658 500.083 153.474 509.659C153.474 500.98 153.474 362.2 153.474 353.522L208.639 330.413L263.804 327.525Z" fill="#F3A141"/>
<path fill-rule="evenodd" clip-rule="evenodd" d="M153.474 299.857L153.474 299.857C153.477 299.856 153.479 299.856 153.479 299.856C153.479 299.856 153.477 299.856 153.474 299.857L263.804 327.525C250.387 330.687 166.92 350.354 153.474 353.522C153.474 353.522 153.474 353.522 153.474 353.522L104.438 341.968L55.4021 330.414C59.6534 329.089 63.7214 327.822 67.6139 326.609C82.3092 322.03 94.503 318.231 104.619 315.08C148.626 301.368 153.305 299.91 153.474 299.858V299.857C153.429 299.872 153.099 299.974 153.474 299.857V299.857L153.474 299.857Z" fill="#F8C67C"/>
</g>
<defs>
<clipPath id="clip0_8_1257">
<rect width="264" height="480" fill="white"/>
</clipPath>
</defs>
</svg>
