<svg width="40" height="41" viewBox="0 0 40 41" fill="none" xmlns="http://www.w3.org/2000/svg">
<path fill-rule="evenodd" clip-rule="evenodd" d="M0 20.519C0 9.47335 8.95431 0.519043 20 0.519043C31.0457 0.519043 40 9.47335 40 20.519C40 31.5647 31.0457 40.519 20 40.519C8.95431 40.519 0 31.5647 0 20.519ZM20 10.519C25.5 10.519 30 15.019 30 20.519C30 25.519 26.375 29.769 21.375 30.519V23.394H23.75L24.25 20.519H21.5V18.644C21.5 17.894 21.875 17.144 23.125 17.144H24.375V14.644C24.375 14.644 23.25 14.394 22.125 14.394C19.875 14.394 18.375 15.769 18.375 18.269V20.519H15.875V23.394H18.375V30.394C13.625 29.644 10 25.519 10 20.519C10 15.019 14.5 10.519 20 10.519Z" fill="#626F68"/>
</svg>
