<svg width="277" height="338" viewBox="0 0 277 338" fill="none" xmlns="http://www.w3.org/2000/svg">
<g clip-path="url(#clip0_8_1598)">
<path d="M0.653076 217.065V319.437C26.7926 326.001 48.4047 331.428 73.6777 337.774L81.7915 286.034L73.6777 234.295L38.2472 218.98L0.653076 217.065Z" fill="#5EBA3F"/>
<path d="M73.6782 16.2993V218.611L100.907 233.986L138.589 238.862L146.703 79.5222L138.589 32.8495L106.134 16.5503L73.6782 16.2993Z" fill="#5374E9"/>
<path d="M138.588 32.8495V225.607L171.044 221.907L203.499 205.357C203.499 202.827 203.499 18.8273 203.499 16.2993L171.044 16.5503L138.588 32.8495Z" fill="#6C8DFF"/>
<path fill-rule="evenodd" clip-rule="evenodd" d="M122.49 28.7447C104.834 24.243 79.1616 17.6974 73.6782 16.2992L138.588 0.000157092V0H138.589L203.499 16.2992L187.067 20.4889C169.423 24.9874 144.04 31.4593 138.589 32.8492L138.589 32.8494C138.589 32.8493 138.589 32.8493 138.589 32.8493C138.589 32.8493 138.588 32.8493 138.588 32.8494V32.8492C136.211 32.243 130.094 30.6833 122.49 28.7447Z" fill="#7CAEF8"/>
<path d="M73.6782 234.295V337.774C81.7331 335.752 130.65 323.468 138.589 321.475L146.703 270.228L138.589 218.98C129.008 219.449 108.836 220.435 103.159 220.713C99.5782 222.362 77.2716 232.64 73.6782 234.295Z" fill="#6BCD49"/>
<path fill-rule="evenodd" clip-rule="evenodd" d="M73.6782 198.73V198.729C92.8073 204.697 99.3422 206.736 103.966 208.178C110.214 210.127 112.973 210.988 138.589 218.98C133.639 220.148 112.481 225.14 95.4426 229.16C85.2942 231.554 76.6075 233.604 73.6782 234.295V234.294L73.6777 234.295C64.7784 232.196 9.53395 219.161 0.653076 217.066L73.6777 198.729L73.6782 198.73Z" fill="#C9F87C"/>
<path d="M203.233 234.021L211.347 285.76L203.233 337.5C195.381 335.528 146.226 323.185 138.322 321.201C138.322 315.51 138.322 224.397 138.322 218.706L170.778 219.895L203.233 234.021Z" fill="#F39321"/>
<path d="M276.524 217.065V319.437C250.384 326.001 228.772 331.428 203.499 337.774C203.499 332.022 203.499 240.046 203.499 234.295L240.011 218.98L276.524 217.065Z" fill="#F3A141"/>
<path fill-rule="evenodd" clip-rule="evenodd" d="M203.499 198.729L203.499 198.729C203.501 198.728 203.502 198.728 203.502 198.728C203.502 198.728 203.501 198.728 203.499 198.729L276.524 217.065C267.643 219.161 212.399 232.195 203.499 234.295C203.499 234.295 203.499 234.295 203.499 234.295L171.044 226.637L138.588 218.98C141.417 218.098 144.123 217.253 146.712 216.446C156.42 213.417 164.478 210.903 171.164 208.818C200.287 199.731 203.387 198.764 203.499 198.729V198.729C203.469 198.738 203.252 198.806 203.499 198.729V198.729L203.499 198.729C203.499 198.729 203.499 198.729 203.499 198.729L203.499 198.729Z" fill="#F8C67C"/>
</g>
<defs>
<clipPath id="clip0_8_1598">
<rect width="276" height="338" fill="white" transform="translate(0.653076)"/>
</clipPath>
</defs>
</svg>
