<svg width="107" height="249" viewBox="0 0 107 249" fill="none" xmlns="http://www.w3.org/2000/svg">
<g clip-path="url(#clip0_8_1571)">
<path d="M-52.7485 236.181V77.0623L-31.3051 64.9699L-1.62881 61.1352L4.76116 186.456L-1.62881 223.164L-27.1887 235.983L-52.7485 236.181Z" fill="#F39321"/>
<path d="M-1.62915 223.164V71.5602L23.9307 74.4706L49.4906 87.4873C49.4906 89.4764 49.4906 234.192 49.4906 236.181L23.9307 235.983L-1.62915 223.164Z" fill="#F3A141"/>
<path fill-rule="evenodd" clip-rule="evenodd" d="M-14.6296 226.474C-28.5226 230.012 -48.4636 235.089 -52.7488 236.181L-1.62926 249H-1.62905L49.4905 236.181L36.6128 232.902C22.715 229.363 2.6693 224.259 -1.62902 223.164L-1.62905 223.164C-1.62909 223.164 -1.62912 223.164 -1.62916 223.164C-1.62919 223.164 -1.62923 223.164 -1.62926 223.164V223.164C-3.53503 223.649 -8.49217 224.912 -14.6296 226.474Z" fill="#F8C67C"/>
<path d="M-52.7488 64.7275V-16.6588C-46.4052 -15.0679 -7.88142 -5.40731 -1.62905 -3.83951L4.76091 36.4665L-1.62905 76.7725C-9.17432 76.4041 -25.0606 75.6281 -29.5319 75.4098C-32.3516 74.1129 -49.9189 66.0295 -52.7488 64.7275Z" fill="#6BCD49"/>
<path d="M49.4903 64.7275L55.8803 24.0348L49.4903 -16.6583C43.3065 -15.1076 4.59528 -5.39999 -1.62939 -3.83902C-1.62939 0.637047 -1.62939 72.2973 -1.62939 76.7729L23.9305 75.8376L49.4903 64.7275Z" fill="#5EBA3F"/>
<path d="M107 78.2783V-2.23708C86.414 -7.3994 69.3937 -11.6674 49.4902 -16.6588C49.4902 -12.1348 49.4902 60.204 49.4902 64.7275L78.2451 76.7729L107 78.2783Z" fill="#6BCD49"/>
<path fill-rule="evenodd" clip-rule="evenodd" d="M49.4905 92.6999L107 78.2783C100.006 76.6302 56.4994 66.3788 49.4903 64.7275L49.4903 64.7275L49.4902 64.7275C49.4902 64.7275 49.4902 64.7275 49.4901 64.7275V64.7275L23.9305 70.75L-1.62939 76.7725C0.585767 77.4627 2.70541 78.1231 4.73364 78.755C12.3946 81.142 18.7514 83.1226 24.025 84.7653C46.9526 91.9092 49.4001 92.6717 49.4901 92.6998V92.6998C49.4661 92.6924 49.2956 92.6393 49.4901 92.7V92.7L49.4902 92.7C49.4903 92.7 49.4903 92.7 49.4903 92.7L49.4905 92.6999C49.492 92.7004 49.4929 92.7007 49.4929 92.7007C49.4929 92.7007 49.4921 92.7004 49.4905 92.6999Z" fill="#C9F87C"/>
</g>
<defs>
<clipPath id="clip0_8_1571">
<rect width="107" height="249" fill="white" transform="matrix(-1 0 0 -1 107 249)"/>
</clipPath>
</defs>
</svg>
