<svg width="40" height="41" viewBox="0 0 40 41" fill="none" xmlns="http://www.w3.org/2000/svg">
<path d="M20 24.019C18.125 24.019 16.5 22.519 16.5 20.519C16.5 18.644 18 17.019 20 17.019C21.875 17.019 23.5 18.519 23.5 20.519C23.5 22.394 21.875 24.019 20 24.019Z" fill="#626F68"/>
<path fill-rule="evenodd" clip-rule="evenodd" d="M24.25 12.019H15.75C14.75 12.144 14.25 12.269 13.875 12.394C13.375 12.519 13 12.769 12.625 13.144C12.3283 13.4408 12.1881 13.7375 12.0186 14.0962C11.9739 14.1907 11.9271 14.2898 11.875 14.394C11.8557 14.4521 11.8333 14.5131 11.8094 14.5784C11.6786 14.9357 11.5 15.4237 11.5 16.269V24.769C11.625 25.769 11.75 26.269 11.875 26.644C12 27.144 12.25 27.519 12.625 27.894C12.9217 28.1908 13.2185 28.331 13.5771 28.5004C13.6717 28.5451 13.7706 28.5919 13.875 28.644C13.933 28.6634 13.994 28.6857 14.0594 28.7096C14.4167 28.8404 14.9047 29.019 15.75 29.019H24.25C25.25 28.894 25.75 28.769 26.125 28.644C26.625 28.519 27 28.269 27.375 27.894C27.6717 27.5973 27.8119 27.3006 27.9814 26.9419C28.0261 26.8473 28.0728 26.7484 28.125 26.644C28.1443 26.586 28.1667 26.525 28.1906 26.4596C28.3214 26.1024 28.5 25.6143 28.5 24.769V16.269C28.375 15.269 28.25 14.769 28.125 14.394C28 13.894 27.75 13.519 27.375 13.144C27.0783 12.8473 26.7815 12.7071 26.4229 12.5376C26.3284 12.493 26.2292 12.4461 26.125 12.394C26.067 12.3747 26.006 12.3524 25.9406 12.3284C25.5833 12.1977 25.0953 12.019 24.25 12.019ZM20 15.144C17 15.144 14.625 17.519 14.625 20.519C14.625 23.519 17 25.894 20 25.894C23 25.894 25.375 23.519 25.375 20.519C25.375 17.519 23 15.144 20 15.144ZM26.75 15.019C26.75 15.7094 26.1904 16.269 25.5 16.269C24.8096 16.269 24.25 15.7094 24.25 15.019C24.25 14.3287 24.8096 13.769 25.5 13.769C26.1904 13.769 26.75 14.3287 26.75 15.019Z" fill="#626F68"/>
<path fill-rule="evenodd" clip-rule="evenodd" d="M0 20.519C0 9.47335 8.95431 0.519043 20 0.519043C31.0457 0.519043 40 9.47335 40 20.519C40 31.5647 31.0457 40.519 20 40.519C8.95431 40.519 0 31.5647 0 20.519ZM15.75 10.144H24.25C25.375 10.269 26.125 10.394 26.75 10.644C27.5 11.019 28 11.269 28.625 11.894C29.25 12.519 29.625 13.144 29.875 13.769C30.125 14.394 30.375 15.144 30.375 16.269V24.769C30.25 25.894 30.125 26.644 29.875 27.269C29.5 28.019 29.25 28.519 28.625 29.144C28 29.769 27.375 30.144 26.75 30.394C26.125 30.644 25.375 30.894 24.25 30.894H15.75C14.625 30.769 13.875 30.644 13.25 30.394C12.5 30.019 12 29.769 11.375 29.144C10.75 28.519 10.375 27.894 10.125 27.269C9.875 26.644 9.625 25.894 9.625 24.769V16.269C9.75 15.144 9.875 14.394 10.125 13.769C10.5 13.019 10.75 12.519 11.375 11.894C12 11.269 12.625 10.894 13.25 10.644C13.875 10.394 14.625 10.144 15.75 10.144Z" fill="#626F68"/>
</svg>
