<svg width="40" height="41" viewBox="0 0 40 41" fill="none" xmlns="http://www.w3.org/2000/svg">
<path fill-rule="evenodd" clip-rule="evenodd" d="M0 20.519C0 9.47335 8.95431 0.519043 20 0.519043C31.0457 0.519043 40 9.47335 40 20.519C40 31.5647 31.0457 40.519 20 40.519C8.95431 40.519 0 31.5647 0 20.519ZM27.625 14.894C28.5 14.769 29.25 14.644 30 14.269C29.5 15.144 28.75 15.894 27.875 16.394C28.125 22.269 23.875 28.644 16.25 28.644C14 28.644 11.875 27.894 10 26.769C12.125 27.019 14.375 26.394 15.875 25.269C14 25.269 12.5 24.019 12 22.394C12.625 22.519 13.25 22.394 13.875 22.269C12 21.769 10.625 20.019 10.625 18.144C11.25 18.394 11.875 18.644 12.5 18.644C10.75 17.394 10.125 15.019 11.25 13.144C13.375 15.644 16.375 17.269 19.75 17.394C19.125 14.894 21.125 12.394 23.75 12.394C24.875 12.394 26 12.894 26.75 13.644C27.75 13.394 28.625 13.144 29.375 12.644C29.125 13.644 28.5 14.394 27.625 14.894Z" fill="#626F68"/>
</svg>
