<svg width="437" height="10" viewBox="0 0 437 10" fill="none" xmlns="http://www.w3.org/2000/svg">
<path opacity="0.5" d="M435.632 0.0702229C436.145 -0.133085 436.726 0.118376 436.93 0.631878C437.133 1.14538 436.882 1.72647 436.368 1.92978L435.632 0.0702229ZM344.651 4.09496L344.297 3.15978L344.651 4.09496ZM336.406 7.21732L336.052 6.28214L336.406 7.21732ZM307.239 4.80849L306.803 3.90834L307.239 4.80849ZM305.251 5.77057L305.686 6.67072L305.251 5.77057ZM270.062 5.29855L269.627 4.3984L270.062 5.29855ZM269.646 5.5L270.082 6.40015L269.646 5.5ZM234.063 4.37529L233.702 3.44273L234.063 4.37529ZM194.714 5.77999L194.277 4.88054L194.714 5.77999ZM174.754 4.68924L175.18 3.78457L174.754 4.68924ZM143.693 5.88646L143.237 6.77625L143.693 5.88646ZM109.765 6.00664L109.328 6.90609L109.765 6.00664ZM107.348 4.83218L106.911 5.73162L107.348 4.83218ZM57.5324 5.71445L57.0594 4.83335L57.5324 5.71445ZM1.46869 0.116639L10.6428 4.98426L9.70546 6.75098L0.531307 1.88336L1.46869 0.116639ZM41.7367 4.51143L42.1148 4.72172L41.1427 6.46959L40.7646 6.2593L41.7367 4.51143ZM57.0594 4.83335L57.6737 4.50365L58.6196 6.26585L58.0053 6.59555L57.0594 4.83335ZM75.051 4.26408L76.7442 5.11361L75.8473 6.90122L74.1541 6.05169L75.051 4.26408ZM107.785 3.93274L110.202 5.1072L109.328 6.90609L106.911 5.73162L107.785 3.93274ZM142.968 4.3908L144.15 4.99667L143.237 6.77625L142.056 6.17038L142.968 4.3908ZM175.18 3.78457L177.719 4.98074L176.867 6.79008L174.328 5.5939L175.18 3.78457ZM194.277 4.88054L195.854 4.11416L196.728 5.91305L195.151 6.67943L194.277 4.88054ZM226.907 6.07318L233.702 3.44273L234.424 5.30785L227.629 7.9383L226.907 6.07318ZM269.211 4.59985L269.627 4.3984L270.498 6.19869L270.082 6.40015L269.211 4.59985ZM304.815 4.87043L306.803 3.90834L307.675 5.70863L305.686 6.67072L304.815 4.87043ZM336.052 6.28214L344.297 3.15978L345.005 5.03014L336.76 8.15251L336.052 6.28214ZM375.623 5.96986L380.523 4.11431L381.231 5.98467L376.332 7.84022L375.623 5.96986ZM423.939 4.69964L435.632 0.0702229L436.368 1.92978L424.675 6.5592L423.939 4.69964ZM402.598 4.4916C409.394 7.31055 417.104 7.40569 423.939 4.69964L424.675 6.5592C417.351 9.4591 409.102 9.35453 401.832 6.33899L402.598 4.4916ZM380.523 4.11431C387.633 1.42182 395.582 1.58144 402.598 4.4916L401.832 6.33899C395.28 3.62151 387.858 3.47497 381.231 5.98467L380.523 4.11431ZM360.829 4.64278C365.297 7.32687 370.749 7.81589 375.623 5.96986L376.332 7.84022C370.884 9.90316 364.792 9.35668 359.799 6.35722L360.829 4.64278ZM344.297 3.15978C349.744 1.09684 355.836 1.64332 360.829 4.64278L359.799 6.35722C355.331 3.67313 349.879 3.18411 345.005 5.03014L344.297 3.15978ZM322.998 4.89998C326.883 7.40668 331.728 7.91964 336.052 6.28214L336.76 8.15251C331.842 10.0149 326.333 9.43148 321.914 6.58053L322.998 4.89998ZM306.803 3.90834C312.005 1.39122 318.143 1.76702 322.998 4.89998L321.914 6.58053C317.645 3.82588 312.248 3.49545 307.675 5.70863L306.803 3.90834ZM288.255 4.6465C293.422 7.29386 299.597 7.39548 304.815 4.87043L305.686 6.67072C299.896 9.47282 293.061 9.35589 287.343 6.42645L288.255 4.6465ZM269.627 4.3984C275.507 1.55277 282.449 1.67148 288.255 4.6465L287.343 6.42645C282.087 3.73351 275.806 3.63011 270.498 6.19869L269.627 4.3984ZM251.582 4.38559C257.095 7.21006 263.638 7.29653 269.211 4.59985L270.082 6.40015C263.941 9.37143 256.738 9.27466 250.67 6.16555L251.582 4.38559ZM233.702 3.44273C239.516 1.19203 246.036 1.54399 251.582 4.38559L250.67 6.16555C245.629 3.58278 239.703 3.26405 234.424 5.30785L233.702 3.44273ZM212.938 4.87185C217.159 7.40742 222.315 7.85082 226.907 6.07318L227.629 7.9383C222.461 9.93889 216.659 9.43988 211.909 6.5863L212.938 4.87185ZM195.854 4.11416C201.311 1.46269 207.738 1.74773 212.938 4.87185L211.909 6.5863C207.287 3.81034 201.577 3.55707 196.728 5.91305L195.854 4.11416ZM177.719 4.98074C182.969 7.45366 189.057 7.41682 194.277 4.88054L195.151 6.67943C189.387 9.48015 182.665 9.52082 176.867 6.79008L177.719 4.98074ZM158.961 4.54878C163.907 1.62204 169.981 1.33582 175.18 3.78457L174.328 5.5939C169.729 3.42762 164.355 3.68082 159.98 6.26996L158.961 4.54878ZM144.15 4.99667C148.836 7.40041 154.429 7.23131 158.961 4.54878L159.98 6.26996C154.856 9.30227 148.535 9.49343 143.237 6.77625L144.15 4.99667ZM125.483 4.68497C130.897 1.674 137.456 1.56364 142.968 4.3908L142.056 6.17038C137.138 3.64797 131.285 3.74643 126.455 6.43284L125.483 4.68497ZM110.202 5.1072C115.059 7.46748 120.763 7.30988 125.483 4.68497L126.455 6.43284C121.165 9.37488 114.772 9.55152 109.328 6.90609L110.202 5.1072ZM91.4056 4.6052C96.4063 1.64578 102.558 1.3932 107.785 3.93274L106.911 5.73162C102.288 3.48554 96.8471 3.70893 92.4242 6.32638L91.4056 4.6052ZM76.7442 5.11361C81.3996 7.44942 86.9232 7.25787 91.4056 4.6052L92.4242 6.32638C87.3562 9.32563 81.1109 9.5422 75.8473 6.90122L76.7442 5.11361ZM57.6737 4.50365C63.082 1.60073 69.5647 1.51136 75.051 4.26408L74.1541 6.05169C69.2496 3.59088 63.4544 3.67077 58.6196 6.26585L57.6737 4.50365ZM42.1148 4.72172C46.7524 7.30094 52.3838 7.343 57.0594 4.83335L58.0053 6.59555C52.7296 9.42728 46.3755 9.37982 41.1427 6.46959L42.1148 4.72172ZM25.0706 4.68851C30.2044 1.68879 36.5403 1.62147 41.7367 4.51143L40.7646 6.2593C36.1859 3.71287 30.6032 3.77218 26.0796 6.41533L25.0706 4.68851ZM10.6428 4.98426C15.1788 7.39094 20.6371 7.27905 25.0706 4.68851L26.0796 6.41533C21.048 9.35535 14.8533 9.48233 9.70546 6.75098L10.6428 4.98426Z" fill="#C9F87C"/>
</svg>
