<svg width="151" height="31" viewBox="0 0 151 31" fill="none" xmlns="http://www.w3.org/2000/svg">
<path d="M77.6521 15.1738C76.4135 15.1738 75.5207 15.5796 74.6154 15.9931V25.3489C75.4825 25.4315 75.9796 25.4315 76.8023 25.4315C79.7751 25.4315 80.1827 24.071 80.1827 22.1716V17.7032C80.1827 16.3004 79.7168 15.1738 77.6521 15.1738ZM57.9087 14.6632C55.846 14.6632 55.3753 15.7947 55.3753 17.1961V17.9835H60.4393V17.1961C60.4393 15.7947 59.9686 14.6632 57.9087 14.6632ZM19.6618 24.4013C19.6618 25.5099 20.1853 26.0857 21.3406 26.0857C22.5798 26.0857 23.3136 25.6819 24.2183 25.267V23.0478H21.5086C20.2256 23.0478 19.6618 23.2864 19.6618 24.4013ZM96.8574 15.1738C94.7913 15.1738 94.0755 16.3004 94.0755 17.7032V22.8223C94.0755 24.2285 94.7913 25.3586 96.8574 25.3586C98.918 25.3586 99.6393 24.2285 99.6393 22.8223V17.7032C99.6386 16.3004 98.9173 15.1738 96.8574 15.1738ZM9.53672 30.1413H3.46333V15.452H0.428711V10.3905H3.46402V7.35049C3.46402 3.22065 5.17676 0.765503 10.0449 0.765503H14.098V5.82842H11.5647C9.66933 5.82842 9.54436 6.53604 9.54436 7.85623L9.53672 10.3898H14.1258L13.5891 15.4513H9.53672V30.1413ZM30.293 30.1794H25.2312L25.0125 28.9002C22.7013 30.1794 20.6387 30.3869 19.2779 30.3869C15.5657 30.3869 13.5898 27.9088 13.5898 24.4817C13.5898 20.4386 15.8955 18.9956 20.0201 18.9956H24.2183V18.1215C24.2183 16.0576 23.9815 15.452 20.8053 15.452H15.6122L16.1197 10.3905H21.796C28.765 10.3905 30.293 12.5903 30.293 18.1624V30.1794ZM47.5059 15.8231C44.356 15.2834 43.4514 15.1648 41.9358 15.1648C39.2136 15.1648 38.3909 15.7649 38.3909 18.075V22.4449C38.3909 24.7551 39.2136 25.3579 41.9358 25.3579C43.4514 25.3579 44.356 25.2372 47.5059 24.6954V29.6328C44.7469 30.2509 42.9494 30.4132 41.4304 30.4132C34.9099 30.4132 32.3182 26.9868 32.3182 22.037V18.4913C32.3182 13.5373 34.9099 10.1046 41.4304 10.1046C42.9494 10.1046 44.7469 10.2677 47.5059 10.8886V15.8231ZM66.512 22.037H55.3746V22.4449C55.3746 24.7551 56.198 25.3579 58.9195 25.3579C61.3661 25.3579 62.8595 25.2372 66.0038 24.6954V29.6328C62.9712 30.2509 61.3911 30.4132 58.4162 30.4132C51.895 30.4132 49.3019 26.9868 49.3019 22.037V17.9828C49.3019 13.6517 51.2257 10.1046 57.908 10.1046C64.5902 10.1046 66.512 13.6108 66.512 17.9828V22.037ZM86.2547 22.1306C86.2547 26.9147 84.8863 30.4042 76.5968 30.4042C73.6031 30.4042 71.8474 30.1413 68.5434 29.6334V2.28618L74.6147 1.27402V10.84C75.9268 10.353 77.625 10.1053 79.1704 10.1053C85.2424 10.1053 86.254 12.8255 86.254 17.1968V22.1306H86.2547ZM105.717 22.2347C105.717 26.3618 104.012 30.3647 96.8776 30.3647C89.7399 30.3647 88.0028 26.3618 88.0028 22.2347V18.2499C88.0028 14.1207 89.7399 10.1171 96.8776 10.1171C104.012 10.1171 105.717 14.1207 105.717 18.2499V22.2347ZM125.166 22.2347C125.166 26.3618 123.459 30.3647 116.326 30.3647C109.188 30.3647 107.451 26.3618 107.451 22.2347V18.2499C107.451 14.1207 109.188 10.1171 116.326 10.1171C123.459 10.1171 125.166 14.1207 125.166 18.2499V22.2347ZM145.125 30.1413H138.544L132.978 20.8569V30.1413H126.905V2.28549L132.978 1.27332V19.2058L138.544 10.3905H145.125L139.049 20.0106L145.125 30.1413ZM116.305 15.1738C114.242 15.1738 113.527 16.3004 113.527 17.7032V22.8223C113.527 24.2285 114.242 25.3586 116.305 25.3586C118.365 25.3586 119.094 24.2285 119.094 22.8223V17.7032C119.094 16.3004 118.365 15.1738 116.305 15.1738ZM148.592 26.6767C149.614 26.6767 150.429 27.5099 150.429 28.5505C150.429 29.6071 149.614 30.4312 148.584 30.4312C147.559 30.4312 146.728 29.6071 146.728 28.5505C146.728 27.5099 147.559 26.6767 148.584 26.6767H148.592ZM148.584 26.9681C147.76 26.9681 147.086 27.6764 147.086 28.5505C147.086 29.4406 147.761 30.1399 148.592 30.1399C149.423 30.1482 150.088 29.4406 150.088 28.5588C150.088 27.6771 149.423 26.9681 148.592 26.9681H148.584ZM148.235 29.6411H147.902V27.5501C148.077 27.5259 148.243 27.5016 148.493 27.5016C148.81 27.5016 149.017 27.5682 149.144 27.6591C149.267 27.7513 149.332 27.8922 149.332 28.0913C149.332 28.3674 149.151 28.5332 148.926 28.6005V28.6164C149.109 28.6504 149.233 28.8155 149.276 29.1229C149.324 29.4482 149.375 29.5724 149.407 29.6404H149.058C149.009 29.5724 148.958 29.3816 148.917 29.1062C148.868 28.8405 148.733 28.7406 148.467 28.7406H148.236V29.6411H148.235ZM148.235 28.4839H148.476C148.75 28.4839 148.983 28.3833 148.983 28.1246C148.983 27.9414 148.851 27.759 148.476 27.759C148.367 27.759 148.292 27.7673 148.235 27.7749V28.4839Z" fill="#BBC6BF"/>
</svg>
