<svg width="105" height="33" viewBox="0 0 105 33" fill="none" xmlns="http://www.w3.org/2000/svg">
<path fill-rule="evenodd" clip-rule="evenodd" d="M12.8612 0.459351H13.7898C17.0139 0.525801 20.1851 1.75355 22.4629 3.92704C21.6219 4.74007 20.7635 5.51988 19.9399 6.33271C18.6609 5.23786 17.1189 4.3916 15.4368 4.09297C12.9489 3.59519 10.268 4.04313 8.183 5.38718C5.90522 6.79727 4.36323 9.18653 4.03031 11.7415C3.66252 14.2635 4.41586 16.9181 6.15041 18.8759C7.815 20.7839 10.3557 21.9785 12.9838 22.0615C15.4368 22.1942 17.9951 21.4807 19.7823 19.8548C21.1839 18.7099 21.8322 16.968 22.0425 15.2757C19.134 15.2757 16.2254 15.2921 13.3167 15.2757V11.8578H25.5642C26.195 15.5245 25.2839 19.6557 22.3403 22.2771C20.3779 24.1353 17.6622 25.2304 14.8938 25.4462C12.2129 25.695 9.4445 25.2138 7.06165 23.986C4.20554 22.5427 1.92776 20.1036 0.806408 17.2334C-0.244766 14.5953 -0.262311 11.6088 0.718896 8.95415C1.61238 6.53187 3.3296 4.3916 5.53721 2.89844C7.65731 1.4217 10.2329 0.608667 12.8612 0.459351Z" fill="#BBC6BF"/>
<path fill-rule="evenodd" clip-rule="evenodd" d="M83.1226 1.32214H86.8722V25.0148C85.628 25.0148 84.3665 25.0312 83.1226 24.9981C83.1399 17.1172 83.1226 9.21968 83.1226 1.32214Z" fill="#BBC6BF"/>
<path fill-rule="evenodd" clip-rule="evenodd" d="M33.9047 9.53495C36.2176 9.12003 38.7233 9.58459 40.6331 10.8954C42.3676 12.0567 43.5767 13.8819 43.9447 15.8729C44.4177 18.1791 43.8219 20.7008 42.245 22.526C40.5455 24.5666 37.7596 25.6617 35.0436 25.4957C32.5555 25.363 30.1376 24.1851 28.6658 22.2604C27.0014 20.1368 26.5983 17.2167 27.5094 14.728C28.4206 12.0567 30.9962 10.0161 33.9047 9.53495ZM34.4304 12.6872C33.4843 12.9196 32.6082 13.4338 31.9774 14.1639C30.2777 16.0884 30.383 19.2243 32.2577 21.0161C33.3266 22.0449 34.9386 22.526 36.4279 22.2438C37.812 22.0116 39.0211 21.1324 39.6869 19.9709C40.8434 17.9965 40.5105 15.2756 38.7408 13.7326C37.6019 12.737 35.9373 12.3223 34.4304 12.6872Z" fill="#BBC6BF"/>
<path fill-rule="evenodd" clip-rule="evenodd" d="M52.4774 9.53502C55.1231 9.05384 58.0141 9.75059 59.9941 11.5094C63.2182 14.2469 63.5685 19.3737 60.8176 22.5261C59.153 24.5171 56.4548 25.6121 53.7915 25.4958C51.2509 25.4296 48.7453 24.235 47.2384 22.2605C45.5389 20.087 45.1709 17.1007 46.1346 14.5621C47.0983 11.9739 49.6215 9.99958 52.4774 9.53502ZM53.003 12.6873C52.0569 12.9196 51.1808 13.4338 50.55 14.1474C48.8681 16.0389 48.9381 19.1249 50.7428 20.9333C51.8115 22.0117 53.4761 22.5427 55.0181 22.2439C56.3846 21.9951 57.6113 21.1324 58.2771 19.9709C59.416 17.98 59.0831 15.2591 57.2959 13.7161C56.157 12.7205 54.4924 12.3224 53.003 12.6873Z" fill="#BBC6BF"/>
<path fill-rule="evenodd" clip-rule="evenodd" d="M68.2292 10.4971C70.2442 9.30262 72.9249 8.97076 75.0976 9.99956C75.781 10.2816 76.3416 10.7628 76.8848 11.2439L76.9023 9.86685L80.4416 9.88327V24.517C80.4241 26.7236 79.8284 29.063 78.1463 30.6724C76.3065 32.4476 73.4857 32.9952 70.9449 32.6301C68.2292 32.2486 65.8637 30.3738 64.8125 28.0011C65.8637 27.52 66.9677 27.1385 68.0539 26.6905C68.6671 28.051 69.9113 29.2123 71.4706 29.4779C73.0299 29.7433 74.8347 29.3782 75.8509 28.1505C76.9372 26.8895 76.9372 25.1641 76.8848 23.6211C76.0788 24.3677 75.15 25.0312 74.0287 25.2802C71.5932 25.9273 68.9125 25.1309 67.0376 23.5713C65.1454 22.0117 64.024 19.606 64.1291 17.2168C64.1817 14.5123 65.7937 11.9074 68.2292 10.4971ZM71.8562 12.621C70.7872 12.7869 69.7885 13.351 69.1051 14.1308C67.4583 15.989 67.4583 18.9589 69.1226 20.7839C70.069 21.8624 71.5932 22.4596 73.065 22.3103C74.4493 22.1776 75.7283 21.348 76.4117 20.2033C77.5682 18.262 77.3754 15.6239 75.8159 13.9316C74.8522 12.8864 73.3104 12.372 71.8562 12.621Z" fill="#BBC6BF"/>
<path fill-rule="evenodd" clip-rule="evenodd" d="M91.3751 11.3433C93.4777 9.4851 96.7191 8.85461 99.4175 9.83357C101.976 10.7461 103.605 13.0523 104.429 15.4249C100.626 16.9181 96.8417 18.3946 93.0397 19.888C93.5654 20.8337 94.3714 21.6964 95.4576 22.0449C96.9821 22.5591 98.8041 22.3767 100.083 21.4144C100.592 21.0493 100.994 20.5681 101.38 20.1035L104.271 21.9286C102.904 23.8699 100.609 25.2303 98.1385 25.4461C95.405 25.7613 92.4965 24.7658 90.7268 22.7416C87.8183 19.5561 88.0986 14.2136 91.3751 11.3433ZM93.25 14.4127C92.6541 15.2258 92.409 16.2211 92.4265 17.2001C94.967 16.2047 97.5076 15.2091 100.048 14.1972C99.6277 13.268 98.6116 12.7038 97.5777 12.5545C95.9131 12.2725 94.1786 13.1185 93.25 14.4127Z" fill="#BBC6BF"/>
</svg>
