<svg width="106" height="33" viewBox="0 0 106 33" fill="none" xmlns="http://www.w3.org/2000/svg">
<g clip-path="url(#clip0_8_1351)">
<path d="M0 23.2718V0.982305H3.91524V23.2718H0V23.2719V23.2718ZM13.938 7.10158C8.9178 7.10158 5.44395 10.9614 5.44395 15.3793C5.44395 20.3099 9.22328 23.7067 13.977 23.7067C18.4886 23.7067 22.4037 20.3727 22.4037 15.3687C22.4037 11.161 19.1594 7.10166 13.938 7.10166V7.10158ZM13.8918 10.8788C16.5191 10.8788 18.4527 12.9237 18.4527 15.3935C18.4527 18.0122 16.3206 19.9224 13.9626 19.9224C11.1766 19.9224 9.42308 17.7142 9.42308 15.4006C9.42315 12.8647 11.4028 10.8788 13.8918 10.8788V10.8788ZM32.2411 7.10158C27.2211 7.10158 23.7471 10.9614 23.7471 15.3793C23.7471 20.3099 27.5264 23.7067 32.2801 23.7067C36.7917 23.7067 40.7068 20.3727 40.7068 15.3687C40.7068 12.4221 39.4307 11.1147 39.4307 11.1147L40.516 10.7425V7.5648H34.955C34.955 7.5648 33.7493 7.10158 32.2411 7.10158ZM32.195 10.8788C34.8221 10.8788 36.7559 12.9237 36.7559 15.3935C36.7559 18.0122 34.6238 19.9224 32.2659 19.9224C29.4798 19.9224 27.7263 17.7142 27.7263 15.4006C27.7264 12.8647 29.7061 10.8788 32.195 10.8788V10.8788ZM36.7282 24.3615C36.7282 26.9801 34.5963 28.9046 32.2383 28.9046C29.4521 28.9046 27.6916 26.6749 27.6916 24.3615H23.7195C23.7195 29.292 27.4986 32.6887 32.2525 32.6887C36.764 32.6887 40.6791 29.3651 40.6791 24.3615H36.7282ZM42.275 23.2718V7.5648H46.1905V23.2718H42.275ZM49.9924 23.2718V11.0831H47.8928V7.5648H49.9924V2.74144H53.9078V7.5648H56.0641V11.0831H53.9078V23.2718H49.9924ZM46.8174 3.10371C46.8174 4.53563 45.6565 5.69649 44.2247 5.69649C42.7925 5.69649 41.6318 4.53556 41.6318 3.10371C41.6318 1.67172 42.7927 0.510864 44.2247 0.510864C45.6566 0.510864 46.8174 1.67172 46.8174 3.10371ZM64.8668 7.091C59.8228 7.091 56.5713 10.9527 56.5713 15.5212C56.5713 20.2423 59.8338 23.7174 64.9484 23.7174C69.7194 23.7174 72.0663 20.7381 72.0663 20.7381L69.449 18.1171C69.449 18.1171 67.4727 20.2488 64.998 20.2488C62.935 20.2488 61.2856 19.0973 60.7101 16.9859H72.9103V15.9078C72.9105 11.6057 70.4204 7.091 64.8668 7.091ZM64.7427 10.5383C66.5463 10.5383 68.391 11.5032 68.8035 13.8082H60.6038C60.9284 12.1879 62.346 10.5383 64.7427 10.5383ZM82.7039 23.7195C77.6459 23.7195 74.1993 19.8669 74.1993 15.3247C74.1993 10.637 78.0945 7.08806 82.6877 7.08806C87.128 7.08806 89.401 10.2226 89.401 10.2226L86.6695 12.9417C86.6695 12.9417 85.0873 10.8974 82.669 10.8974C79.989 10.8974 78.1564 12.9477 78.1564 15.3848C78.1564 17.958 80.1057 19.9325 82.6389 19.9325C85.0961 19.9325 86.6657 17.8916 86.6657 17.8916L89.4244 20.609C89.4244 20.609 87.1736 23.7195 82.7041 23.7195H82.7039V23.7194V23.7195ZM90.849 23.2832V0.925646H94.7643V9.13994C94.7643 9.13994 96.2635 7.08806 99.5248 7.08806C103.625 7.08806 106 10.1358 106 14.0338V23.2831H102.084V14.6255C102.084 12.0068 100.454 10.9203 98.648 10.9203C96.5901 10.9203 94.7644 12.0914 94.7644 14.8281V23.2832H90.849Z" fill="#BBC6BF"/>
</g>
<defs>
<clipPath id="clip0_8_1351">
<rect width="106" height="32.1816" fill="white" transform="translate(0 0.507568)"/>
</clipPath>
</defs>
</svg>
