<svg width="123" height="32" viewBox="0 0 123 32" fill="none" xmlns="http://www.w3.org/2000/svg">
<g clip-path="url(#clip0_8_1334)">
<path fill-rule="evenodd" clip-rule="evenodd" d="M39.3501 24.5429L40.8851 20.9759C42.5432 22.2157 44.7523 22.8602 46.9318 22.8602C48.5407 22.8602 49.5591 22.2403 49.5591 21.3006C49.5345 18.6733 39.9208 20.7299 39.847 14.142C39.8224 10.7964 42.7941 8.21831 47.0056 8.21831C49.5099 8.21831 52.0093 8.83823 53.7952 10.2503L52.3586 13.8911C50.7251 12.848 48.6932 12.1051 46.7596 12.1051C45.446 12.1051 44.5801 12.725 44.5801 13.5171C44.6047 16.0952 54.2921 14.6832 54.3905 20.9759C54.3905 24.3953 51.4927 26.8011 47.3303 26.8011C44.2799 26.7962 41.4805 26.0779 39.3501 24.5429ZM98.2966 19.6868C97.5291 21.0251 96.0925 21.9402 94.4295 21.9402C91.9744 21.9402 89.9966 19.9574 89.9966 17.5073C89.9966 15.0571 91.9793 13.0743 94.4295 13.0743C96.0875 13.0743 97.5291 13.9895 98.2966 15.3277L102.533 12.9759C100.948 10.1519 97.8981 8.21831 94.4295 8.21831C89.2979 8.21831 85.1356 12.3806 85.1356 17.5122C85.1356 22.6437 89.2979 26.8061 94.4295 26.8061C97.9227 26.8061 100.948 24.8971 102.533 22.0484L98.2966 19.6868ZM56.5209 0.508667H61.8247V26.4518H56.5209V0.508667ZM104.614 0.508667V26.4518H109.918V18.6684L116.21 26.4518H123L114.995 17.2071L122.405 8.58239H115.91L109.913 15.741V0.508667H104.614Z" fill="#BBC6BF"/>
<path d="M77.5835 19.736C76.816 21.0005 75.2318 21.9402 73.4458 21.9402C70.9907 21.9402 69.0129 19.9574 69.0129 17.5073C69.0129 15.0571 70.9957 13.0743 73.4458 13.0743C75.2318 13.0743 76.816 14.0633 77.5835 15.3523V19.736ZM77.5835 8.5873V10.6931C76.7176 9.23182 74.5627 8.21338 72.3044 8.21338C67.6451 8.21338 63.9797 12.3265 63.9797 17.4827C63.9797 22.6388 67.6451 26.8011 72.3044 26.8011C74.5577 26.8011 76.7127 25.7876 77.5835 24.3215V26.4272H82.8873V8.5873H77.5835Z" fill="#BBC6BF"/>
<path fill-rule="evenodd" clip-rule="evenodd" d="M6.56826 19.7115C6.56826 21.5221 5.10702 22.9833 3.29646 22.9833C1.4859 22.9833 0.0246582 21.5171 0.0246582 19.7115C0.0246582 17.9059 1.4859 16.4397 3.29646 16.4397H6.56826V19.7115ZM8.2017 19.7115C8.2017 17.9009 9.66294 16.4397 11.4735 16.4397C13.2841 16.4397 14.7453 17.9009 14.7453 19.7115V27.8886C14.7453 29.6991 13.2841 31.1604 11.4735 31.1604C9.66294 31.1604 8.2017 29.6991 8.2017 27.8886V19.7115Z" fill="#BBC6BF"/>
<path fill-rule="evenodd" clip-rule="evenodd" d="M11.4734 6.57998C9.66288 6.57998 8.20164 5.11874 8.20164 3.30818C8.20164 1.49762 9.66288 0.036377 11.4734 0.036377C13.284 0.036377 14.7452 1.49762 14.7452 3.30818V6.57998H11.4734ZM11.4734 8.23802C13.284 8.23802 14.7452 9.69925 14.7452 11.5098C14.7452 13.3204 13.284 14.7816 11.4734 14.7816H3.2718C1.46124 14.7816 0 13.3155 0 11.5098C0 9.70417 1.46124 8.23802 3.2718 8.23802H11.4734Z" fill="#BBC6BF"/>
<path fill-rule="evenodd" clip-rule="evenodd" d="M24.5804 11.5098C24.5804 9.69925 26.0416 8.23802 27.8522 8.23802C29.6627 8.23802 31.124 9.69925 31.124 11.5098C31.124 13.3204 29.6627 14.7816 27.8522 14.7816H24.5804V11.5098ZM22.9469 11.5098C22.9469 13.3204 21.4857 14.7816 19.6751 14.7816C17.8646 14.7816 16.4033 13.3204 16.4033 11.5098V3.30818C16.4033 1.49762 17.8646 0.036377 19.6751 0.036377C21.4857 0.036377 22.9469 1.49762 22.9469 3.30818V11.5098Z" fill="#BBC6BF"/>
<path fill-rule="evenodd" clip-rule="evenodd" d="M19.6751 24.6167C21.4857 24.6167 22.9469 26.078 22.9469 27.8886C22.9469 29.6991 21.4857 31.1604 19.6751 31.1604C17.8646 31.1604 16.4033 29.6991 16.4033 27.8886V24.6167H19.6751ZM19.6751 22.9833C17.8646 22.9833 16.4033 21.5221 16.4033 19.7115C16.4033 17.9009 17.8646 16.4397 19.6751 16.4397H27.8767C29.6873 16.4397 31.1485 17.9009 31.1485 19.7115C31.1485 21.5221 29.6873 22.9833 27.8767 22.9833H19.6751Z" fill="#BBC6BF"/>
</g>
<defs>
<clipPath id="clip0_8_1334">
<rect width="123" height="31.1239" fill="white" transform="translate(0 0.036377)"/>
</clipPath>
</defs>
</svg>
